HIERARCHY
ROOT Pelvis
{
	OFFSET 0.000000 0.000000 0.000000
	CHANNELS 6 Xposition Yposition Zposition Xrotation Yrotation Zrotation
	JOINT LeftUpLeg_virtual
	{
		OFFSET 0.000000 0.000000 0.000000
		CHANNELS 3 Xrotation Yrotation Zrotation
		JOINT LeftUpLeg
		{
			OFFSET 18.735201 -5.666702 -4.541200
			CHANNELS 3 Xrotation Yrotation Zrotation
			JOINT LeftLeg
			{
				OFFSET -0.021200 -31.938179 0.493100
				CHANNELS 3 Xrotation Yrotation Zrotation
				JOINT LeftFoot
				{
					OFFSET 0.021200 -31.938179 -4.336299
					CHANNELS 3 Xrotation Yrotation Zrotation
					JOINT LeftToeBase
					{
						OFFSET 0.943001 -26.722000 15.023500
						CHANNELS 3 Xrotation Yrotation Zrotation
						End Site
						{
							OFFSET 0 0 0
						}
					}
				}
			}
		}
	}
	JOINT RightUpLeg_virtual
	{
		OFFSET 0.000000 0.000000 0.000000
		CHANNELS 3 Xrotation Yrotation Zrotation
		JOINT RightUpLeg
		{
			OFFSET -18.735201 -5.666702 -4.541200
			CHANNELS 3 Xrotation Yrotation Zrotation
			JOINT RightLeg
			{
				OFFSET 0.018946 -31.938133 0.493100
				CHANNELS 3 Xrotation Yrotation Zrotation
				JOINT RightFoot
				{
					OFFSET -0.018946 -31.938126 -4.336299
					CHANNELS 3 Xrotation Yrotation Zrotation
					JOINT RightToeBase
					{
						OFFSET -0.943001 -26.722004 15.023500
						CHANNELS 3 Xrotation Yrotation Zrotation
						End Site
						{
							OFFSET 0 0 0
						}
					}
				}
			}
		}
	}
	JOINT Hips_virtual
	{
		OFFSET 0.000000 0.000000 0.000000
		CHANNELS 3 Xrotation Yrotation Zrotation
		JOINT Hips
		{
			OFFSET -0.000000 -0.000000 -0.000000
			CHANNELS 3 Xrotation Yrotation Zrotation
			JOINT Spine
			{
				OFFSET 0.000000 10.199997 -0.299500
				CHANNELS 3 Xrotation Yrotation Zrotation
				JOINT Spine1
				{
					OFFSET 0.000000 11.900002 -1.516600
					CHANNELS 3 Xrotation Yrotation Zrotation
					JOINT Spine2
					{
						OFFSET 0.000000 13.600006 -2.842500
						CHANNELS 3 Xrotation Yrotation Zrotation
						JOINT Neck_virtual
						{
							OFFSET 0.000000 0.000000 0.000000
							CHANNELS 3 Xrotation Yrotation Zrotation
							JOINT Neck
							{
								OFFSET 0.000000 9.624100 -2.890100
								CHANNELS 3 Xrotation Yrotation Zrotation
								JOINT Head
								{
									OFFSET 0.000000 14.068802 -1.351900
									CHANNELS 3 Xrotation Yrotation Zrotation
									End Site
									{
										OFFSET 0 0 0
									}
								}
							}
						}
						JOINT LeftShoulder_virtual
						{
							OFFSET 0.000000 0.000000 0.000000
							CHANNELS 3 Xrotation Yrotation Zrotation
							JOINT LeftShoulder
							{
								OFFSET 15.263000 10.923401 -0.547700
								CHANNELS 3 Xrotation Yrotation Zrotation
								JOINT LeftArm
								{
									OFFSET 25.438599 -2.830597 -13.032500
									CHANNELS 3 Xrotation Yrotation Zrotation
									JOINT LeftForeArm
									{
										OFFSET 29.960503 0.000000 0.000000
										CHANNELS 3 Xrotation Yrotation Zrotation
										JOINT LeftHand
										{
											OFFSET 27.849251 0.000000 0.000000
											CHANNELS 3 Xrotation Yrotation Zrotation
											End Site
											{
												OFFSET 0 0 0
											}
										}
									}
								}
							}
						}
						JOINT RightShoulder_virtual
						{
							OFFSET 0.000000 0.000000 0.000000
							CHANNELS 3 Xrotation Yrotation Zrotation
							JOINT RightShoulder
							{
								OFFSET -15.263000 10.923401 -0.547700
								CHANNELS 3 Xrotation Yrotation Zrotation
								JOINT RightArm
								{
									OFFSET -25.438599 -2.830597 -13.032500
									CHANNELS 3 Xrotation Yrotation Zrotation
									JOINT RightForeArm
									{
										OFFSET -29.960503 0.000000 0.000000
										CHANNELS 3 Xrotation Yrotation Zrotation
										JOINT RightHand
										{
											OFFSET -27.849251 0.000000 0.000000
											CHANNELS 3 Xrotation Yrotation Zrotation
											End Site
											{
												OFFSET 0 0 0
											}
										}
									}
								}
							}
						}
					}
				}
			}
		}
	}
}
MOTION
Frames: 10
Frame Time: 0.03333333
-21.067913 91.704849 -14.667118 0.000000 0.000000 0.000000 -175.422726 -45.217539 -153.411772 -98.767008 -27.935576 5.737972 105.250907 -17.377333 -20.812071 29.168521 -6.630096 -47.835571 0.000000 0.000000 0.000000 24.050355 -32.057729 19.535056 -20.930174 -17.819663 -10.427266 33.706369 14.996619 -3.967396 -18.575374 12.625534 14.104301 0.000000 0.000000 0.000000 -27.679733 -72.272943 -18.210679 -12.845743 -53.474033 -16.380503 17.945386 -1.523366 -0.646431 9.691121 -0.782023 -1.237744 0.000000 0.000000 0.000000 6.530855 4.174796 1.014530 2.457131 6.058641 0.123932 0.000000 0.000000 0.000000 4.703537 -2.368407 1.800973 -0.933370 -9.223423 10.185859 -79.913794 9.192262 -71.358354 -87.282257 -57.404482 -87.624230 0.000000 0.000000 0.000000 4.415417 1.601806 1.530406 2.736895 9.122168 2.998414 22.496239 15.983597 -7.270788 144.237872 70.433163 -146.738391 0.000000 0.000000 0.000000 
-21.714617 92.120827 -14.309143 0.000000 0.000000 0.000000 -176.512647 -43.660430 -153.553649 -100.211197 -28.585153 6.010627 105.622264 -18.444671 -21.362518 28.698747 -7.027343 -49.275006 0.000000 0.000000 0.000000 24.649289 -29.820001 20.203534 -20.656408 -17.514261 -9.784670 33.647199 15.395605 -3.945386 -18.800015 12.922982 14.399678 0.000000 0.000000 0.000000 -29.980497 -73.162575 -20.247119 -14.363866 -54.246264 -17.307394 18.183118 -1.351903 -0.780054 9.848795 -0.693222 -1.317693 0.000000 0.000000 0.000000 6.726384 4.193761 0.952661 2.608759 6.100715 0.087775 0.000000 0.000000 0.000000 4.791728 -2.204996 2.049543 -0.878995 -8.798009 11.776855 -81.952619 9.012856 -70.672172 -91.020419 -57.038035 -90.820930 0.000000 0.000000 0.000000 4.425640 1.729800 1.312345 2.891762 9.534306 1.734547 20.540870 16.173895 -8.356352 147.984026 68.698685 -151.058240 0.000000 0.000000 0.000000 
-22.383429 92.592072 -14.100330 0.000000 0.000000 0.000000 -177.512737 -42.166453 -153.698190 -101.537237 -29.202822 6.223546 106.067736 -19.598424 -21.851049 28.238164 -7.507448 -50.721599 0.000000 0.000000 0.000000 24.872428 -27.289007 20.771572 -20.658797 -17.116828 -9.079959 33.579505 15.766037 -3.917217 -19.016058 13.192687 14.682800 0.000000 0.000000 0.000000 -32.145807 -73.954788 -22.175100 -15.673988 -54.954206 -17.908071 18.409347 -1.190115 -0.923696 10.004838 -0.610465 -1.403577 0.000000 0.000000 0.000000 6.923880 4.218952 0.846364 2.755551 6.138185 0.030741 0.000000 0.000000 0.000000 4.878349 -2.054924 2.317104 -0.805342 -8.452387 13.444232 -83.921769 8.656943 -69.995581 -94.834445 -56.678368 -94.067503 0.000000 0.000000 0.000000 4.463772 1.865028 1.086598 3.089530 10.004034 0.467165 18.540776 15.824336 -9.374251 150.458918 67.249223 -154.119817 0.000000 0.000000 0.000000 
-22.994755 92.982849 -13.901588 0.000000 0.000000 0.000000 -178.406918 -40.837018 -153.865857 -102.652463 -29.774666 6.409927 106.687193 -20.751423 -22.245144 27.906141 -8.035753 -52.084250 0.000000 0.000000 0.000000 24.818452 -24.984738 21.261108 -20.976201 -16.731626 -8.472210 33.520403 16.087006 -3.894502 -19.220969 13.413736 14.924554 0.000000 0.000000 0.000000 -34.205048 -74.649241 -24.019583 -16.714684 -55.502254 -18.297554 18.631793 -1.038017 -1.052743 10.164786 -0.531536 -1.487484 0.000000 0.000000 0.000000 7.120680 4.245210 0.715592 2.897307 6.166460 -0.037825 0.000000 0.000000 0.000000 4.992771 -1.902243 2.574186 -0.707784 -8.108414 15.048753 -85.721750 8.281905 -69.408164 -98.547820 -56.235290 -97.256436 0.000000 0.000000 0.000000 4.551842 2.016743 0.853469 3.352863 10.549066 -0.814542 16.579586 15.681640 -10.517812 152.677828 65.609431 -156.945562 0.000000 0.000000 0.000000 
-23.650612 93.363480 -13.642456 0.000000 0.000000 0.000000 -179.165697 -39.663851 -153.826133 -103.774827 -30.240772 6.616326 107.457358 -21.895481 -22.600363 27.604746 -8.523597 -53.372054 0.000000 0.000000 0.000000 24.567816 -22.720211 21.727141 -21.526436 -16.339814 -7.909818 33.439629 16.411268 -3.872058 -19.460080 13.621877 15.164917 0.000000 0.000000 0.000000 -36.113990 -75.217308 -25.710591 -17.859037 -55.900864 -18.674900 18.811721 -0.880071 -1.202469 10.310552 -0.450030 -1.586221 0.000000 0.000000 0.000000 7.313212 4.282761 0.576591 3.035507 6.193576 -0.107030 0.000000 0.000000 0.000000 5.149876 -1.734946 2.799035 -0.579207 -7.710372 16.504136 -87.289182 7.910717 -68.883995 -101.857095 -55.756805 -100.109782 0.000000 0.000000 0.000000 4.623881 2.166970 0.619047 3.620573 11.108028 -2.067741 14.528036 15.595479 -11.693440 154.450385 64.057906 -159.357179 0.000000 0.000000 0.000000 
-24.221989 93.786247 -13.599297 0.000000 0.000000 0.000000 -179.794061 -38.528599 -153.833851 -104.780067 -30.630400 6.705184 108.437873 -23.081634 -22.874558 27.403607 -9.069726 -54.633986 0.000000 0.000000 0.000000 24.294858 -20.709981 22.154958 -22.075600 -16.000177 -7.424258 33.424794 16.668143 -3.875846 -19.615429 13.799993 15.328652 0.000000 0.000000 0.000000 -37.761609 -75.705503 -27.181535 -18.760281 -56.272542 -18.947162 18.979048 -0.745501 -1.337070 10.452803 -0.383714 -1.677528 0.000000 0.000000 0.000000 7.516401 4.318067 0.439634 3.170255 6.216850 -0.174366 0.000000 0.000000 0.000000 5.323665 -1.595003 3.006082 -0.428690 -7.425712 17.856881 -88.745454 7.496711 -68.419911 -105.018516 -55.227988 -102.833429 0.000000 0.000000 0.000000 4.668730 2.291572 0.398793 3.857737 11.591933 -3.244410 12.391618 15.351229 -12.867913 155.741045 62.719920 -161.324068 0.000000 0.000000 0.000000 
-24.831028 94.068893 -13.458576 0.000000 0.000000 0.000000 -179.998284 -37.212080 -153.734731 -105.949334 -30.708599 6.345247 109.506087 -24.481203 -23.122229 27.062879 -9.704406 -56.036289 0.000000 0.000000 0.000000 24.034092 -18.623192 22.752697 -22.591622 -15.696502 -6.792155 33.502406 16.902037 -3.862974 -19.714132 13.941798 15.521477 0.000000 0.000000 0.000000 -39.320231 -76.173302 -28.574356 -19.375187 -56.841107 -18.916550 19.106831 -0.640201 -1.463397 10.579761 -0.335842 -1.768103 0.000000 0.000000 0.000000 7.708518 4.352465 0.312294 3.299654 6.235699 -0.237340 0.000000 0.000000 0.000000 5.489638 -1.489788 3.193968 -0.265187 -7.275605 19.085089 -90.075688 7.062229 -68.016472 -107.901935 -54.696257 -105.319434 0.000000 0.000000 0.000000 4.692885 2.395981 0.191663 4.087078 12.023203 -4.359050 10.254411 15.197743 -14.147388 156.667041 61.561984 -162.961852 0.000000 0.000000 0.000000 
-25.347143 94.308907 -13.425640 0.000000 0.000000 0.000000 179.638237 -36.784383 -153.381487 -106.677767 -30.961852 6.470144 110.402133 -25.487978 -23.316254 26.886172 -10.126106 -57.063567 0.000000 0.000000 0.000000 23.816323 -17.065902 23.277973 -23.168524 -15.479155 -6.375399 33.555265 17.072930 -3.857609 -19.813832 14.029191 15.654365 0.000000 0.000000 0.000000 -40.760414 -76.579248 -29.861567 -19.816715 -57.293608 -18.751977 19.198683 -0.566142 -1.589890 10.687938 -0.312247 -1.862687 0.000000 0.000000 0.000000 7.900421 4.367842 0.199434 3.425436 6.241578 -0.293884 0.000000 0.000000 0.000000 5.657336 -1.404322 3.360773 -0.096049 -7.181689 20.185779 -91.187096 6.641105 -67.707392 -110.395357 -54.168953 -107.501447 0.000000 0.000000 0.000000 4.699900 2.471541 -0.014177 4.300578 12.374184 -5.451790 8.053424 14.883757 -15.556671 157.166082 60.681948 -164.241830 0.000000 0.000000 0.000000 
-25.838497 94.524719 -13.403217 0.000000 0.000000 0.000000 179.062999 -36.688262 -153.111681 -107.095905 -31.398779 6.889417 111.162517 -26.096201 -23.446296 26.890958 -10.353097 -57.699232 0.000000 0.000000 0.000000 23.489328 -15.495949 23.828869 -23.688155 -15.273884 -5.843295 33.458938 17.203694 -3.816697 -19.981575 14.069559 15.785827 0.000000 0.000000 0.000000 -41.926280 -76.876306 -30.894496 -19.992175 -57.438462 -18.478076 19.235933 -0.509043 -1.704472 10.767641 -0.305722 -1.950516 0.000000 0.000000 0.000000 8.073845 4.373482 0.092409 3.539712 6.239622 -0.349225 0.000000 0.000000 0.000000 5.750580 -1.336962 3.490584 0.011840 -7.157090 21.100649 -92.289926 6.333357 -67.386974 -112.584446 -53.548099 -109.348767 0.000000 0.000000 0.000000 4.698863 2.522196 -0.193368 4.490978 12.635713 -6.419735 5.816517 14.450194 -16.903267 157.418758 60.056392 -165.290346 0.000000 0.000000 0.000000 
-26.227625 94.714745 -13.552128 0.000000 0.000000 0.000000 178.769792 -36.653247 -152.838911 -107.432667 -31.643604 7.064511 111.792916 -26.685636 -23.530939 26.821448 -10.588167 -58.275078 0.000000 0.000000 0.000000 23.328627 -14.294729 24.239634 -24.057716 -15.123222 -5.508986 33.477458 17.279844 -3.828546 -20.053814 14.098892 15.820528 0.000000 0.000000 0.000000 -42.750806 -77.093513 -31.629424 -19.837784 -57.318620 -18.052062 19.238341 -0.471184 -1.805299 10.826568 -0.319359 -2.030323 0.000000 0.000000 0.000000 8.249754 4.365226 0.000231 3.654133 6.227616 -0.398462 0.000000 0.000000 0.000000 5.742932 -1.307295 3.551855 0.030615 -7.260775 21.687189 -93.303669 6.422617 -67.255049 -114.641201 -52.554822 -111.157449 0.000000 0.000000 0.000000 4.697360 2.542976 -0.345568 4.667797 12.803818 -7.266106 3.562256 13.869487 -17.945188 157.569787 59.706003 -166.190592 0.000000 0.000000 0.000000 
